<svg width="216" height="70" viewBox="0 0 216 70" fill="none" xmlns="http://www.w3.org/2000/svg">
<rect x="1.5" y="1.5" width="213" height="67" stroke="#FAFAFA" stroke-width="3"/>
<path d="M65.9545 18.3376C65.8985 18.2629 65.7025 18.1229 65.3665 17.9176C65.0305 17.7122 64.6105 17.4976 64.1065 17.2736C63.6025 17.0496 63.0518 16.8536 62.4545 16.6856C61.8572 16.5176 61.2598 16.4336 60.6625 16.4336C59.0198 16.4336 58.1985 16.9842 58.1985 18.0856C58.1985 18.4216 58.2825 18.7016 58.4505 18.9256C58.6372 19.1496 58.8985 19.3549 59.2345 19.5416C59.5892 19.7096 60.0278 19.8682 60.5505 20.0176C61.0732 20.1669 61.6798 20.3349 62.3705 20.5216C63.3225 20.7829 64.1812 21.0722 64.9465 21.3896C65.7118 21.6882 66.3558 22.0709 66.8785 22.5376C67.4198 22.9856 67.8305 23.5362 68.1105 24.1896C68.4092 24.8429 68.5585 25.6269 68.5585 26.5416C68.5585 27.6616 68.3438 28.6136 67.9145 29.3976C67.5038 30.1629 66.9532 30.7882 66.2625 31.2736C65.5718 31.7402 64.7785 32.0856 63.8825 32.3096C62.9865 32.5149 62.0625 32.6176 61.1105 32.6176C60.3825 32.6176 59.6358 32.5616 58.8705 32.4496C58.1052 32.3376 57.3585 32.1789 56.6305 31.9736C55.9025 31.7496 55.1932 31.4882 54.5025 31.1896C53.8305 30.8909 53.2052 30.5456 52.6265 30.1536L54.6425 26.1496C54.7172 26.2429 54.9598 26.4202 55.3705 26.6816C55.7812 26.9429 56.2852 27.2042 56.8825 27.4656C57.4985 27.7269 58.1798 27.9602 58.9265 28.1656C59.6732 28.3709 60.4292 28.4736 61.1945 28.4736C62.8185 28.4736 63.6305 27.9789 63.6305 26.9896C63.6305 26.6162 63.5092 26.3082 63.2665 26.0656C63.0238 25.8229 62.6878 25.6082 62.2585 25.4216C61.8292 25.2162 61.3158 25.0296 60.7185 24.8616C60.1398 24.6936 59.5052 24.5069 58.8145 24.3016C57.8998 24.0216 57.1065 23.7229 56.4345 23.4056C55.7625 23.0696 55.2025 22.6869 54.7545 22.2576C54.3252 21.8282 53.9985 21.3336 53.7745 20.7736C53.5692 20.2136 53.4665 19.5602 53.4665 18.8136C53.4665 17.7682 53.6625 16.8442 54.0545 16.0416C54.4465 15.2389 54.9785 14.5669 55.6505 14.0256C56.3225 13.4656 57.0972 13.0456 57.9745 12.7656C58.8705 12.4856 59.8132 12.3456 60.8025 12.3456C61.4932 12.3456 62.1745 12.4109 62.8465 12.5416C63.5185 12.6722 64.1625 12.8402 64.7785 13.0456C65.3945 13.2509 65.9638 13.4842 66.4865 13.7456C67.0278 14.0069 67.5225 14.2682 67.9705 14.5296L65.9545 18.3376ZM85.845 31.6096C85.229 31.8709 84.5197 32.1136 83.717 32.3376C82.933 32.5616 82.1397 32.6736 81.337 32.6736C80.777 32.6736 80.245 32.5989 79.741 32.4496C79.2557 32.3189 78.8263 32.1042 78.453 31.8056C78.0797 31.4882 77.781 31.0776 77.557 30.5736C77.3517 30.0696 77.249 29.4629 77.249 28.7536V21.0816H75.373V17.6936H77.249V13.0176H81.729V17.6936H84.725V21.0816H81.729V27.2136C81.729 27.6989 81.8503 28.0536 82.093 28.2776C82.3357 28.4829 82.6437 28.5856 83.017 28.5856C83.353 28.5856 83.6983 28.5296 84.053 28.4176C84.4077 28.3056 84.7157 28.1842 84.977 28.0536L85.845 31.6096ZM102.515 21.5296C101.432 21.5482 100.452 21.7256 99.5746 22.0616C98.6973 22.3976 98.0626 22.9016 97.6706 23.5736V32.3936H93.1906V17.6936H97.3066V20.6616C97.8106 19.6722 98.4546 18.8976 99.2386 18.3376C100.041 17.7776 100.891 17.4882 101.787 17.4696C101.992 17.4696 102.141 17.4696 102.235 17.4696C102.328 17.4696 102.421 17.4789 102.515 17.4976V21.5296ZM116.291 32.6736C115.059 32.6736 113.949 32.4776 112.959 32.0856C111.989 31.6749 111.158 31.1242 110.467 30.4336C109.795 29.7429 109.282 28.9496 108.927 28.0536C108.573 27.1389 108.395 26.1869 108.395 25.1976C108.395 24.1336 108.573 23.1349 108.927 22.2016C109.282 21.2496 109.795 20.4189 110.467 19.7096C111.139 19.0002 111.961 18.4402 112.931 18.0296C113.921 17.6189 115.041 17.4136 116.291 17.4136C117.542 17.4136 118.653 17.6189 119.623 18.0296C120.594 18.4402 121.415 19.0002 122.087 19.7096C122.759 20.4002 123.263 21.2029 123.599 22.1176C123.954 23.0322 124.131 23.9936 124.131 25.0016C124.131 25.2629 124.122 25.5242 124.103 25.7856C124.085 26.0282 124.057 26.2429 124.019 26.4296H113.155C113.23 27.4189 113.585 28.1749 114.219 28.6976C114.873 29.2016 115.61 29.4536 116.431 29.4536C117.085 29.4536 117.71 29.2949 118.307 28.9776C118.923 28.6602 119.334 28.2309 119.539 27.6896L123.347 28.7536C122.769 29.9109 121.873 30.8536 120.659 31.5816C119.446 32.3096 117.99 32.6736 116.291 32.6736ZM119.399 23.6576C119.306 22.7242 118.97 21.9869 118.391 21.4456C117.813 20.9042 117.094 20.6336 116.235 20.6336C115.358 20.6336 114.63 20.9136 114.051 21.4736C113.491 22.0149 113.165 22.7429 113.071 23.6576H119.399ZM138.79 32.6736C137.558 32.6736 136.447 32.4776 135.458 32.0856C134.487 31.6749 133.656 31.1242 132.966 30.4336C132.294 29.7429 131.78 28.9496 131.426 28.0536C131.071 27.1389 130.894 26.1869 130.894 25.1976C130.894 24.1336 131.071 23.1349 131.426 22.2016C131.78 21.2496 132.294 20.4189 132.966 19.7096C133.638 19.0002 134.459 18.4402 135.43 18.0296C136.419 17.6189 137.539 17.4136 138.79 17.4136C140.04 17.4136 141.151 17.6189 142.122 18.0296C143.092 18.4402 143.914 19.0002 144.586 19.7096C145.258 20.4002 145.762 21.2029 146.098 22.1176C146.452 23.0322 146.63 23.9936 146.63 25.0016C146.63 25.2629 146.62 25.5242 146.602 25.7856C146.583 26.0282 146.555 26.2429 146.518 26.4296H135.654C135.728 27.4189 136.083 28.1749 136.718 28.6976C137.371 29.2016 138.108 29.4536 138.93 29.4536C139.583 29.4536 140.208 29.2949 140.806 28.9776C141.422 28.6602 141.832 28.2309 142.038 27.6896L145.846 28.7536C145.267 29.9109 144.371 30.8536 143.158 31.5816C141.944 32.3096 140.488 32.6736 138.79 32.6736ZM141.898 23.6576C141.804 22.7242 141.468 21.9869 140.89 21.4456C140.311 20.9042 139.592 20.6336 138.734 20.6336C137.856 20.6336 137.128 20.9136 136.55 21.4736C135.99 22.0149 135.663 22.7429 135.57 23.6576H141.898ZM163.671 31.6096C163.055 31.8709 162.345 32.1136 161.543 32.3376C160.759 32.5616 159.965 32.6736 159.163 32.6736C158.603 32.6736 158.071 32.5989 157.567 32.4496C157.081 32.3189 156.652 32.1042 156.279 31.8056C155.905 31.4882 155.607 31.0776 155.383 30.5736C155.177 30.0696 155.075 29.4629 155.075 28.7536V21.0816H153.199V17.6936H155.075V13.0176H159.555V17.6936H162.551V21.0816H159.555V27.2136C159.555 27.6989 159.676 28.0536 159.919 28.2776C160.161 28.4829 160.469 28.5856 160.843 28.5856C161.179 28.5856 161.524 28.5296 161.879 28.4176C162.233 28.3056 162.541 28.1842 162.803 28.0536L163.671 31.6096ZM86.2833 52.2816V47.8176H84.6673V46.3776H86.2833V44.1696L88.0913 43.7856V46.3776H90.3313V47.8176H88.0913V51.8816C88.0913 52.2762 88.1767 52.5589 88.3473 52.7296C88.518 52.8896 88.806 52.9696 89.2113 52.9696C89.3927 52.9696 89.558 52.9589 89.7073 52.9376C89.8673 52.9056 90.0647 52.8522 90.2993 52.7776V54.2976C90.0647 54.3722 89.8033 54.4256 89.5153 54.4576C89.238 54.5002 88.982 54.5216 88.7473 54.5216C87.9473 54.5216 87.334 54.3349 86.9073 53.9616C86.4913 53.5776 86.2833 53.0176 86.2833 52.2816ZM94.3483 54.5216C93.5163 54.5216 92.8337 54.2976 92.3003 53.8496C91.7777 53.3909 91.5163 52.8042 91.5163 52.0896C91.5163 51.3749 91.7883 50.8042 92.3323 50.3776C92.887 49.9509 93.6337 49.7376 94.5723 49.7376C94.9457 49.7376 95.3083 49.7802 95.6603 49.8656C96.0123 49.9402 96.3697 50.0629 96.7323 50.2336V49.3536C96.7323 48.8309 96.5777 48.4362 96.2683 48.1696C95.959 47.8922 95.5003 47.7536 94.8923 47.7536C94.5617 47.7536 94.2043 47.8069 93.8203 47.9136C93.4363 48.0096 93.015 48.1642 92.5563 48.3776L91.9163 47.0656C92.5137 46.7882 93.0843 46.5856 93.6283 46.4576C94.1723 46.3189 94.711 46.2496 95.2443 46.2496C96.279 46.2496 97.0843 46.5056 97.6603 47.0176C98.2363 47.5189 98.5243 48.2336 98.5243 49.1616V54.3936H96.7323V53.5776C96.3697 53.9082 95.9963 54.1482 95.6123 54.2976C95.2283 54.4469 94.807 54.5216 94.3483 54.5216ZM93.2123 52.0576C93.2123 52.4202 93.3617 52.7136 93.6603 52.9376C93.959 53.1509 94.3537 53.2576 94.8443 53.2576C95.207 53.2576 95.543 53.2042 95.8523 53.0976C96.1723 52.9909 96.4657 52.8256 96.7323 52.6016V51.2896C96.4443 51.1509 96.151 51.0549 95.8523 51.0016C95.5537 50.9376 95.2283 50.9056 94.8763 50.9056C94.3643 50.9056 93.959 51.0122 93.6603 51.2256C93.3617 51.4282 93.2123 51.7056 93.2123 52.0576ZM101.471 52.2816V47.8176H99.8548V46.3776H101.471V44.1696L103.279 43.7856V46.3776H105.519V47.8176H103.279V51.8816C103.279 52.2762 103.364 52.5589 103.535 52.7296C103.706 52.8896 103.994 52.9696 104.399 52.9696C104.58 52.9696 104.746 52.9589 104.895 52.9376C105.055 52.9056 105.252 52.8522 105.487 52.7776V54.2976C105.252 54.3722 104.991 54.4256 104.703 54.4576C104.426 54.5002 104.17 54.5216 103.935 54.5216C103.135 54.5216 102.522 54.3349 102.095 53.9616C101.679 53.5776 101.471 53.0176 101.471 52.2816ZM108.252 52.2816V47.8176H106.636V46.3776H108.252V44.1696L110.06 43.7856V46.3776H112.3V47.8176H110.06V51.8816C110.06 52.2762 110.145 52.5589 110.316 52.7296C110.487 52.8896 110.775 52.9696 111.18 52.9696C111.361 52.9696 111.527 52.9589 111.676 52.9376C111.836 52.9056 112.033 52.8522 112.268 52.7776V54.2976C112.033 54.3722 111.772 54.4256 111.484 54.4576C111.207 54.5002 110.951 54.5216 110.716 54.5216C109.916 54.5216 109.303 54.3349 108.876 53.9616C108.46 53.5776 108.252 53.0176 108.252 52.2816ZM113.408 50.3936C113.408 49.8069 113.509 49.2629 113.712 48.7616C113.925 48.2496 114.208 47.8122 114.56 47.4496C114.922 47.0762 115.349 46.7829 115.84 46.5696C116.341 46.3562 116.874 46.2496 117.44 46.2496C118.016 46.2496 118.549 46.3562 119.04 46.5696C119.53 46.7829 119.957 47.0762 120.32 47.4496C120.682 47.8122 120.965 48.2496 121.168 48.7616C121.37 49.2629 121.472 49.8069 121.472 50.3936C121.472 50.9802 121.365 51.5296 121.152 52.0416C120.949 52.5536 120.666 52.9962 120.304 53.3696C119.952 53.7322 119.525 54.0202 119.024 54.2336C118.533 54.4469 118.005 54.5536 117.44 54.5536C116.874 54.5536 116.341 54.4469 115.84 54.2336C115.349 54.0202 114.922 53.7269 114.56 53.3536C114.208 52.9802 113.925 52.5429 113.712 52.0416C113.509 51.5296 113.408 50.9802 113.408 50.3936ZM117.44 52.9856C118.09 52.9856 118.624 52.7402 119.04 52.2496C119.466 51.7589 119.68 51.1456 119.68 50.4096C119.68 49.6522 119.466 49.0282 119.04 48.5376C118.613 48.0469 118.08 47.8016 117.44 47.8016C116.789 47.8016 116.25 48.0469 115.824 48.5376C115.408 49.0282 115.2 49.6522 115.2 50.4096C115.2 51.1562 115.408 51.7749 115.824 52.2656C116.25 52.7456 116.789 52.9856 117.44 52.9856ZM123.017 50.3936C123.017 49.8069 123.118 49.2629 123.321 48.7616C123.534 48.2496 123.817 47.8122 124.169 47.4496C124.532 47.0762 124.958 46.7829 125.449 46.5696C125.95 46.3562 126.484 46.2496 127.049 46.2496C127.625 46.2496 128.158 46.3562 128.649 46.5696C129.14 46.7829 129.566 47.0762 129.929 47.4496C130.292 47.8122 130.574 48.2496 130.777 48.7616C130.98 49.2629 131.081 49.8069 131.081 50.3936C131.081 50.9802 130.974 51.5296 130.761 52.0416C130.558 52.5536 130.276 52.9962 129.913 53.3696C129.561 53.7322 129.134 54.0202 128.633 54.2336C128.142 54.4469 127.614 54.5536 127.049 54.5536C126.484 54.5536 125.95 54.4469 125.449 54.2336C124.958 54.0202 124.532 53.7269 124.169 53.3536C123.817 52.9802 123.534 52.5429 123.321 52.0416C123.118 51.5296 123.017 50.9802 123.017 50.3936ZM127.049 52.9856C127.7 52.9856 128.233 52.7402 128.649 52.2496C129.076 51.7589 129.289 51.1456 129.289 50.4096C129.289 49.6522 129.076 49.0282 128.649 48.5376C128.222 48.0469 127.689 47.8016 127.049 47.8016C126.398 47.8016 125.86 48.0469 125.433 48.5376C125.017 49.0282 124.809 49.6522 124.809 50.4096C124.809 51.1562 125.017 51.7749 125.433 52.2656C125.86 52.7456 126.398 52.9856 127.049 52.9856Z" fill="#FAFAFA"/>
</svg>
